<svg width="74" height="77" viewBox="0 0 74 77" fill="none" xmlns="http://www.w3.org/2000/svg">
<path d="M24 61.5L9.65689 61.5C7.15689 61.5 6.15689 59.8 6.15689 57C6.15689 52.7605 7.65687 34.1666 8.65687 23.9999C8.82354 22.8333 9.15686 20 6.65686 17.5L4.65684 15C3.65685 13 3.65686 10.5 5.65686 8.5C7.65686 6.5 9.99021 5.49996 11.1569 4.99995C17.1569 1.99995 26.5757 2 28.1569 2C30.6569 2 31.1569 3 31.1569 6L31.5 52C31.5 55 30.5 61.5 24 61.5Z" fill="#F6CB94" stroke="#8D6947" stroke-width="3"/>
<mask id="path-2-inside-1_325_288" fill="white">
<path fill-rule="evenodd" clip-rule="evenodd" d="M34.019 7.78125C34.1505 3.75418 35.0132 1 38.1026 1C40.674 1 47.3098 1.57244 49.5216 5.50846C52.9914 6.13781 55.2874 8.67448 55.2874 12.1381C55.2874 12.6557 55.2361 13.1768 55.1373 13.6918C58.8769 14.5695 62 18.3509 62 22.7969C62 23.7103 61.8843 24.5926 61.6689 25.4255C63.3941 26.722 64 28.9654 64 31.5156C64 33.0235 63.4236 34.5609 62.4696 35.8927C63.4789 37.2188 64 39.1073 64 41.2031C64 44.3988 62.1543 47.1126 59.5894 48.0852C59.8562 48.818 60 49.5977 60 50.4062C60 54.3545 56.9968 57.9057 52.6295 58.4327C51.1684 61.3585 47.9869 63 44 63C38.4772 63 34 58.6628 34 53.3125V9.02778V7.78125H34.019Z"/>
</mask>
<path fill-rule="evenodd" clip-rule="evenodd" d="M34.019 7.78125C34.1505 3.75418 35.0132 1 38.1026 1C40.674 1 47.3098 1.57244 49.5216 5.50846C52.9914 6.13781 55.2874 8.67448 55.2874 12.1381C55.2874 12.6557 55.2361 13.1768 55.1373 13.6918C58.8769 14.5695 62 18.3509 62 22.7969C62 23.7103 61.8843 24.5926 61.6689 25.4255C63.3941 26.722 64 28.9654 64 31.5156C64 33.0235 63.4236 34.5609 62.4696 35.8927C63.4789 37.2188 64 39.1073 64 41.2031C64 44.3988 62.1543 47.1126 59.5894 48.0852C59.8562 48.818 60 49.5977 60 50.4062C60 54.3545 56.9968 57.9057 52.6295 58.4327C51.1684 61.3585 47.9869 63 44 63C38.4772 63 34 58.6628 34 53.3125V9.02778V7.78125H34.019Z" fill="#F2AEB1"/>
<path d="M34.019 7.78125V10.7812H36.9227L37.0174 7.87913L34.019 7.78125ZM49.5216 5.50846L46.9062 6.97812L47.5976 8.20843L48.9862 8.4603L49.5216 5.50846ZM55.1373 13.6918L52.1911 13.1266L51.6485 15.9546L54.4519 16.6125L55.1373 13.6918ZM61.6689 25.4255L58.7645 24.6744L58.2619 26.6178L59.8666 27.8238L61.6689 25.4255ZM62.4696 35.8927L60.0308 34.1457L58.7406 35.9467L60.0824 37.7096L62.4696 35.8927ZM59.5894 48.0852L58.5257 45.2801L55.7577 46.3298L56.7704 49.1115L59.5894 48.0852ZM52.6295 58.4327L52.2701 55.4544L50.667 55.6478L49.9456 57.0924L52.6295 58.4327ZM34 7.78125V4.78125H31V7.78125H34ZM37.0174 7.87913C37.0808 5.93657 37.3248 4.82056 37.6146 4.26188C37.7286 4.04217 37.7928 4.02294 37.7618 4.04219C37.7259 4.06446 37.7895 4 38.1026 4V-2C36.871 -2 35.6683 -1.72019 34.5976 -1.05567C33.5319 -0.394164 32.7929 0.526844 32.2886 1.49907C31.3418 3.32424 31.0886 5.59885 31.0206 7.68337L37.0174 7.87913ZM38.1026 4C39.2214 4 41.2288 4.12982 43.1343 4.66605C45.1383 5.23002 46.3897 6.05887 46.9062 6.97812L52.1369 4.0388C50.4417 1.02203 47.2693 -0.403345 44.7596 -1.10961C42.1514 -1.8436 39.5552 -2 38.1026 -2V4ZM48.9862 8.4603C51.1627 8.85507 52.2874 10.2566 52.2874 12.1381H58.2874C58.2874 7.09231 54.8201 3.42056 50.057 2.55662L48.9862 8.4603ZM52.2874 12.1381C52.2874 12.4582 52.2556 12.79 52.1911 13.1266L58.0836 14.2571C58.2166 13.5636 58.2874 12.8532 58.2874 12.1381H52.2874ZM54.4519 16.6125C56.7818 17.1593 59 19.6877 59 22.7969H65C65 17.014 60.972 11.9797 55.8228 10.7712L54.4519 16.6125ZM59 22.7969C59 23.4568 58.9165 24.0867 58.7645 24.6744L64.5734 26.1767C64.8522 25.0985 65 23.9638 65 22.7969H59ZM59.8666 27.8238C60.4497 28.262 61 29.285 61 31.5156H67C67 28.6457 66.3385 25.182 63.4712 23.0272L59.8666 27.8238ZM61 31.5156C61 32.2714 60.7004 33.2109 60.0308 34.1457L64.9084 37.6397C66.1469 35.9109 67 33.7756 67 31.5156H61ZM60.0824 37.7096C60.5809 38.3646 61 39.5482 61 41.2031H67C67 38.6664 66.3769 36.0729 64.8568 34.0757L60.0824 37.7096ZM61 41.2031C61 43.2831 59.8074 44.7941 58.5257 45.2801L60.6531 50.8903C64.5012 49.4311 67 45.5145 67 41.2031H61ZM56.7704 49.1115C56.9207 49.5244 57 49.9572 57 50.4062H63C63 49.2382 62.7916 48.1116 62.4084 47.059L56.7704 49.1115ZM57 50.4062C57 52.8086 55.1584 55.1058 52.2701 55.4544L52.989 61.4111C58.8351 60.7056 63 55.9004 63 50.4062H57ZM49.9456 57.0924C49.1307 58.7241 47.1968 60 44 60V66C48.7771 66 53.206 63.993 55.3134 59.7731L49.9456 57.0924ZM44 60C40.0435 60 37 56.9168 37 53.3125H31C31 60.4087 36.9108 66 44 66V60ZM37 53.3125V9.02778H31V53.3125H37ZM37 9.02778V7.78125H31V9.02778H37ZM34 10.7812H34.019V4.78125H34V10.7812Z" fill="#C96B84" mask="url(#path-2-inside-1_325_288)"/>
<path d="M51.5 47.4999C49.3333 47.4999 44.9 49.0999 44.5 53.4999" stroke="#C96B84" stroke-width="3" stroke-linecap="round"/>
<path d="M43 39.9999C45 40.3333 49.3 42.6999 48.5 47.4999" stroke="#C96B84" stroke-width="3" stroke-linecap="round"/>
<path d="M50 34.4999C48.3333 34.3333 44.7 32.8999 45.5 28.4999" stroke="#C96B84" stroke-width="3" stroke-linecap="round"/>
<path d="M54 15C52.1667 14.6667 48 14 46 19.5" stroke="#C96B84" stroke-width="3" stroke-linecap="round"/>
<path d="M35.5 53.9999C35.3333 50.6666 36.3 44.9999 41.5 44.9999" stroke="#C96B84" stroke-width="3" stroke-linecap="round"/>
<path d="M53.5 37.4999C52.6716 37.4999 52 38.1715 52 38.9999C52 39.8284 52.6716 40.4999 53.5 40.4999V37.4999ZM59.2519 35.1679C58.8629 35.7514 56.9975 37.4999 53.5 37.4999V40.4999C58.0025 40.4999 60.8037 38.2485 61.7481 36.832L59.2519 35.1679Z" fill="#C96B84"/>
<path d="M42.0633 10.5688C41.8252 11.3623 42.2755 12.1986 43.069 12.4366C43.8625 12.6747 44.6987 12.2244 44.9367 11.4309L42.0633 10.5688ZM49.5 5.5C48.3294 5.5 46.7635 5.47295 45.3613 6.14865C43.8321 6.88556 42.7431 8.3026 42.0633 10.5688L44.9367 11.4309C45.4569 9.69714 46.1179 9.11424 46.6637 8.85122C47.3365 8.52699 48.1706 8.5 49.5 8.5V5.5Z" fill="#C96B84"/>
<path d="M40.2058 18.4708C41.0182 18.6333 41.8084 18.1065 41.9709 17.2941C42.1333 16.4818 41.6065 15.6915 40.7942 15.5291L40.2058 18.4708ZM37 23C37 22.2601 37.2181 20.8251 37.8159 19.7324C38.106 19.2023 38.4368 18.8415 38.7855 18.6387C39.1021 18.4545 39.5377 18.3372 40.2058 18.4708L40.7942 15.5291C39.4623 15.2627 38.2729 15.4662 37.277 16.0456C36.3132 16.6063 35.644 17.4518 35.1841 18.2925C34.2819 19.9415 34 21.9064 34 23H37Z" fill="#C96B84"/>
<path d="M53 22.4999C53.5 26.4999 46 30.9999 41.5 25.9999" stroke="#C96B84" stroke-width="3" stroke-linecap="round"/>
<path d="M16 55C16 55.8284 15.3284 56.5 14.5 56.5C13.6716 56.5 12 56.3284 12 55.5C12 54.6716 13.1716 53 14 53C14.8284 53 16 54.1716 16 55Z" fill="#E3B481"/>
<path d="M17.3388 52.7443C17.1429 53.2607 16.6349 53.0121 16.1787 53.0534C15.2323 52.4802 14.7463 52.3517 14.9421 51.8353C15.138 51.3189 16.1829 51.2364 16.6993 51.4323C17.1668 51.6096 17.5346 52.2279 17.3388 52.7443Z" fill="#E3B481"/>
<path d="M15.8655 11C15.8655 11.8284 14.6939 12.5 13.8655 12.5C13.0371 12.5 11.8655 12.3284 11.8655 11.5C11.8655 10.6716 13.5371 10 14.3655 10C15.1939 10 15.8655 10.1716 15.8655 11Z" fill="#E3B481"/>
<path d="M11.5632 13.8461C11.5632 14.3984 11.4177 14.5 10.8655 14.5C10.3132 14.5 10 14.3984 10 13.8461C10 13.2938 10.3014 12.8461 10.8537 12.8461C11.406 12.8461 11.5632 13.2938 11.5632 13.8461Z" fill="#E3B481"/>
<path d="M14.3655 14.6953C14.3655 15.5237 13.8655 16.1953 13.3655 16.1953C13.0893 16.1953 12.8655 16.0237 12.8655 15.1953C12.8655 14.3669 12.8655 13.6953 13.3655 13.1953C14.0726 12.4882 14.3655 13.8669 14.3655 14.6953Z" fill="#E3B481"/>
<circle cx="22.5" cy="28.5" r="2.5" fill="#0F1011"/>
<path d="M1 49.5C0.999999 50.0523 1.44771 50.5 2 50.5C2.55228 50.5 3 50.0523 3 49.5L1 49.5ZM6.91876 36.6863C4.93036 38.1066 3.46676 40.6767 2.50803 43.0923C1.5445 45.5199 1 48.0261 1 49.5L3 49.5C3 48.3704 3.4555 46.1266 4.36697 43.8301C5.28324 41.5215 6.56964 39.3934 8.08124 38.3137L6.91876 36.6863Z" fill="black"/>
<path d="M71 26.5C71 25.9477 71.4477 25.5 72 25.5C72.5523 25.5 73 25.9477 73 26.5H71ZM61.4894 37.128C62.2416 37.5501 63.133 37.534 64.1802 37.0524C65.2437 36.5633 66.3692 35.6292 67.4107 34.4123C68.4451 33.2038 69.3519 31.7683 69.9968 30.3451C70.6475 28.9092 71 27.5556 71 26.5H73C73 27.9444 72.5343 29.5908 71.8185 31.1705C71.097 32.7629 70.089 34.3587 68.9302 35.7127C67.7785 37.0583 66.4324 38.218 65.0158 38.8695C63.5829 39.5285 61.9857 39.6999 60.5106 38.8721L61.4894 37.128Z" fill="black"/>
<path d="M20.4934 73.2747C20.6452 73.8058 21.1987 74.1132 21.7297 73.9615C22.2607 73.8098 22.5682 73.2563 22.4165 72.7253L20.4934 73.2747ZM23.8737 60.1863C21.8353 61.6423 20.7494 64.05 20.2859 66.4341C19.8203 68.8286 19.9474 71.3636 20.4934 73.2747L22.4165 72.7253C21.9625 71.1364 21.8397 68.9214 22.2491 66.8159C22.6605 64.7 23.5746 62.8577 25.0362 61.8137L23.8737 60.1863Z" fill="black"/>
<path d="M17.5 75L21 73.5" stroke="black" stroke-width="3" stroke-linecap="round"/>
<path d="M17.5 75L21 73.5" stroke="black" stroke-width="3" stroke-linecap="round"/>
<path d="M48.5 75.5L46 73" stroke="black" stroke-width="3" stroke-linecap="round"/>
<path d="M46.5755 73.2408C46.4425 73.7768 45.9002 74.1036 45.3642 73.9706C44.8281 73.8376 44.5014 73.2952 44.6344 72.7592L46.5755 73.2408ZM43.6353 60.2277C45.4246 61.6996 46.3566 64.1056 46.7538 66.4585C47.155 68.8344 47.045 71.3485 46.5755 73.2408L44.6344 72.7592C45.0332 71.1515 45.1404 68.9156 44.7817 66.7915C44.4192 64.6444 43.6145 62.8004 42.3647 61.7723L43.6353 60.2277Z" fill="black"/>
<path d="M23.3074 40.2646C22.9012 39.5426 21.9866 39.2865 21.2646 39.6926C20.5426 40.0988 20.2865 41.0134 20.6926 41.7354L23.3074 40.2646ZM20.6926 41.7354C21.6651 43.4642 23.25 44.5287 24.9086 45.1537C26.5619 45.7767 28.3772 46 30 46V43C28.6229 43 27.1881 42.8067 25.9664 42.3463C24.75 41.888 23.8349 41.2025 23.3074 40.2646L20.6926 41.7354Z" fill="#0F1011"/>
<path d="M0.5 51C0.5 51.2761 0.723858 51.5 1 51.5C1.27614 51.5 1.5 51.2761 1.5 51H0.5ZM1.5 51C1.5 50.802 1.6454 50.0617 2.35355 49.3536L1.64645 48.6464C0.754596 49.5383 0.5 50.5314 0.5 51H1.5Z" fill="black"/>
<path d="M3.5 51C3.5 51.2761 3.27614 51.5 3 51.5C2.72386 51.5 2.5 51.2761 2.5 51H3.5ZM2.50003 51.5C2.50003 51.7761 2.27617 52 2.00003 52C1.72388 52 1.50003 51.7761 1.50003 51.5H2.50003ZM2.00003 50.5L2.44724 50.2764L2.50003 50.382V50.5H2.00003ZM2.5 51C2.5 50.8998 2.46296 50.67 1.64647 49.8536L2.35358 49.1464C3.13709 49.93 3.5 50.4336 3.5 51H2.5ZM1.50003 51.5V50.5H2.50003V51.5H1.50003ZM1.55281 50.7236L1.05281 49.7236L1.94724 49.2764L2.44724 50.2764L1.55281 50.7236Z" fill="black"/>
<path d="M73.7893 25.0918C73.8564 24.8239 73.6935 24.5524 73.4256 24.4854C73.1578 24.4184 72.8863 24.5812 72.8192 24.8491L73.7893 25.0918ZM72.8192 24.8491C72.7712 25.0412 72.4504 25.724 71.5916 26.2391L72.1059 27.0967C73.1876 26.448 73.6756 25.5464 73.7893 25.0918L72.8192 24.8491Z" fill="black"/>
<path d="M70.879 24.3637C70.9461 24.0958 71.2176 23.933 71.4854 24C71.7533 24.067 71.9161 24.3385 71.8491 24.6064L70.879 24.3637ZM71.9705 24.1213C72.0375 23.8535 72.309 23.6906 72.5769 23.7577C72.8448 23.8247 73.0076 24.0962 72.9406 24.3641L71.9705 24.1213ZM72.2128 25.2128L71.7247 25.3212L71.6991 25.2059L71.7277 25.0914L72.2128 25.2128ZM71.8491 24.6064C71.8248 24.7036 71.805 24.9355 72.3989 25.9257L71.5413 26.4401C70.9714 25.4898 70.7415 24.9132 70.879 24.3637L71.8491 24.6064ZM72.9406 24.3641L72.6978 25.3342L71.7277 25.0914L71.9705 24.1213L72.9406 24.3641ZM72.7009 25.1044L72.9432 26.1959L71.967 26.4126L71.7247 25.3212L72.7009 25.1044Z" fill="black"/>
<path d="M20.4934 73.2747C20.6452 73.8058 21.1987 74.1132 21.7297 73.9615C22.2607 73.8098 22.5682 73.2563 22.4165 72.7253L20.4934 73.2747ZM23.8737 60.1863C21.8353 61.6423 20.7494 64.05 20.2859 66.4341C19.8203 68.8286 19.9474 71.3636 20.4934 73.2747L22.4165 72.7253C21.9625 71.1364 21.8397 68.9214 22.2491 66.8159C22.6605 64.7 23.5746 62.8577 25.0362 61.8137L23.8737 60.1863Z" fill="black"/>
<path d="M46.5755 73.2408C46.4425 73.7768 45.9002 74.1036 45.3642 73.9706C44.8281 73.8376 44.5014 73.2952 44.6344 72.7592L46.5755 73.2408ZM43.6353 60.2277C45.4246 61.6996 46.3566 64.1056 46.7538 66.4585C47.155 68.8344 47.045 71.3485 46.5755 73.2408L44.6344 72.7592C45.0332 71.1515 45.1404 68.9156 44.7817 66.7915C44.4192 64.6444 43.6145 62.8004 42.3647 61.7723L43.6353 60.2277Z" fill="black"/>
<path d="M1 49.5C0.999999 50.0523 1.44771 50.5 2 50.5C2.55228 50.5 3 50.0523 3 49.5L1 49.5ZM6.91876 36.6863C4.93036 38.1066 3.46676 40.6767 2.50803 43.0923C1.5445 45.5199 1 48.0261 1 49.5L3 49.5C3 48.3704 3.4555 46.1266 4.36697 43.8301C5.28324 41.5215 6.56964 39.3934 8.08124 38.3137L6.91876 36.6863Z" fill="black"/>
<path d="M71 26.5C71 25.9477 71.4477 25.5 72 25.5C72.5523 25.5 73 25.9477 73 26.5H71ZM61.4894 37.128C62.2416 37.5501 63.133 37.534 64.1802 37.0524C65.2437 36.5633 66.3692 35.6292 67.4107 34.4123C68.4451 33.2038 69.3519 31.7683 69.9968 30.3451C70.6475 28.9092 71 27.5556 71 26.5H73C73 27.9444 72.5343 29.5908 71.8185 31.1705C71.097 32.7629 70.089 34.3587 68.9302 35.7127C67.7785 37.0583 66.4324 38.218 65.0158 38.8695C63.5829 39.5285 61.9857 39.6999 60.5106 38.8721L61.4894 37.128Z" fill="black"/>
<path d="M24 61.5L9.65689 61.5C7.15689 61.5 6.15689 59.8 6.15689 57C6.15689 52.7605 7.65687 34.1666 8.65687 23.9999C8.82354 22.8333 9.15686 20 6.65686 17.5L4.65684 15C3.65685 13 3.65686 10.5 5.65686 8.5C7.65686 6.5 9.99021 5.49996 11.1569 4.99995C17.1569 1.99995 26.5757 2 28.1569 2C30.6569 2 31.1569 3 31.1569 6L31.5 52C31.5 55 30.5 61.5 24 61.5Z" fill="#F6CB94" stroke="#CAA078" stroke-width="3"/>
<mask id="path-36-inside-2_325_288" fill="white">
<path fill-rule="evenodd" clip-rule="evenodd" d="M34.019 7.78125C34.1505 3.75418 35.0132 1 38.1026 1C40.674 1 47.3098 1.57244 49.5216 5.50846C52.9914 6.13781 55.2874 8.67448 55.2874 12.1381C55.2874 12.6557 55.2361 13.1768 55.1373 13.6918C58.8769 14.5695 62 18.3509 62 22.7969C62 23.7103 61.8843 24.5926 61.6689 25.4255C63.3941 26.722 64 28.9654 64 31.5156C64 33.0235 63.4236 34.5609 62.4696 35.8927C63.4789 37.2188 64 39.1073 64 41.2031C64 44.3988 62.1543 47.1126 59.5894 48.0852C59.8562 48.818 60 49.5977 60 50.4062C60 54.3545 56.9968 57.9057 52.6295 58.4327C51.1684 61.3585 47.9869 63 44 63C38.4772 63 34 58.6628 34 53.3125V9.02778V7.78125H34.019Z"/>
</mask>
<path fill-rule="evenodd" clip-rule="evenodd" d="M34.019 7.78125C34.1505 3.75418 35.0132 1 38.1026 1C40.674 1 47.3098 1.57244 49.5216 5.50846C52.9914 6.13781 55.2874 8.67448 55.2874 12.1381C55.2874 12.6557 55.2361 13.1768 55.1373 13.6918C58.8769 14.5695 62 18.3509 62 22.7969C62 23.7103 61.8843 24.5926 61.6689 25.4255C63.3941 26.722 64 28.9654 64 31.5156C64 33.0235 63.4236 34.5609 62.4696 35.8927C63.4789 37.2188 64 39.1073 64 41.2031C64 44.3988 62.1543 47.1126 59.5894 48.0852C59.8562 48.818 60 49.5977 60 50.4062C60 54.3545 56.9968 57.9057 52.6295 58.4327C51.1684 61.3585 47.9869 63 44 63C38.4772 63 34 58.6628 34 53.3125V9.02778V7.78125H34.019Z" fill="#F2AEB1"/>
<path d="M34.019 7.78125V10.7812H36.9227L37.0174 7.87913L34.019 7.78125ZM49.5216 5.50846L46.9062 6.97812L47.5976 8.20843L48.9862 8.4603L49.5216 5.50846ZM55.1373 13.6918L52.1911 13.1266L51.6485 15.9546L54.4519 16.6125L55.1373 13.6918ZM61.6689 25.4255L58.7645 24.6744L58.2619 26.6178L59.8666 27.8238L61.6689 25.4255ZM62.4696 35.8927L60.0308 34.1457L58.7406 35.9467L60.0824 37.7096L62.4696 35.8927ZM59.5894 48.0852L58.5257 45.2801L55.7577 46.3298L56.7704 49.1115L59.5894 48.0852ZM52.6295 58.4327L52.2701 55.4544L50.667 55.6478L49.9456 57.0924L52.6295 58.4327ZM34 7.78125V4.78125H31V7.78125H34ZM37.0174 7.87913C37.0808 5.93657 37.3248 4.82056 37.6146 4.26188C37.7286 4.04217 37.7928 4.02294 37.7618 4.04219C37.7259 4.06446 37.7895 4 38.1026 4V-2C36.871 -2 35.6683 -1.72019 34.5976 -1.05567C33.5319 -0.394164 32.7929 0.526844 32.2886 1.49907C31.3418 3.32424 31.0886 5.59885 31.0206 7.68337L37.0174 7.87913ZM38.1026 4C39.2214 4 41.2288 4.12982 43.1343 4.66605C45.1383 5.23002 46.3897 6.05887 46.9062 6.97812L52.1369 4.0388C50.4417 1.02203 47.2693 -0.403345 44.7596 -1.10961C42.1514 -1.8436 39.5552 -2 38.1026 -2V4ZM48.9862 8.4603C51.1627 8.85507 52.2874 10.2566 52.2874 12.1381H58.2874C58.2874 7.09231 54.8201 3.42056 50.057 2.55662L48.9862 8.4603ZM52.2874 12.1381C52.2874 12.4582 52.2556 12.79 52.1911 13.1266L58.0836 14.2571C58.2166 13.5636 58.2874 12.8532 58.2874 12.1381H52.2874ZM54.4519 16.6125C56.7818 17.1593 59 19.6877 59 22.7969H65C65 17.014 60.972 11.9797 55.8228 10.7712L54.4519 16.6125ZM59 22.7969C59 23.4568 58.9165 24.0867 58.7645 24.6744L64.5734 26.1767C64.8522 25.0985 65 23.9638 65 22.7969H59ZM59.8666 27.8238C60.4497 28.262 61 29.285 61 31.5156H67C67 28.6457 66.3385 25.182 63.4712 23.0272L59.8666 27.8238ZM61 31.5156C61 32.2714 60.7004 33.2109 60.0308 34.1457L64.9084 37.6397C66.1469 35.9109 67 33.7756 67 31.5156H61ZM60.0824 37.7096C60.5809 38.3646 61 39.5482 61 41.2031H67C67 38.6664 66.3769 36.0729 64.8568 34.0757L60.0824 37.7096ZM61 41.2031C61 43.2831 59.8074 44.7941 58.5257 45.2801L60.6531 50.8903C64.5012 49.4311 67 45.5145 67 41.2031H61ZM56.7704 49.1115C56.9207 49.5244 57 49.9572 57 50.4062H63C63 49.2382 62.7916 48.1116 62.4084 47.059L56.7704 49.1115ZM57 50.4062C57 52.8086 55.1584 55.1058 52.2701 55.4544L52.989 61.4111C58.8351 60.7056 63 55.9004 63 50.4062H57ZM49.9456 57.0924C49.1307 58.7241 47.1968 60 44 60V66C48.7771 66 53.206 63.993 55.3134 59.7731L49.9456 57.0924ZM44 60C40.0435 60 37 56.9168 37 53.3125H31C31 60.4087 36.9108 66 44 66V60ZM37 53.3125V9.02778H31V53.3125H37ZM37 9.02778V7.78125H31V9.02778H37ZM34 10.7812H34.019V4.78125H34V10.7812Z" fill="#C98093" mask="url(#path-36-inside-2_325_288)"/>
<path d="M51.5 47.4999C49.3333 47.4999 44.9 49.0999 44.5 53.4999" stroke="#C98093" stroke-width="3" stroke-linecap="round"/>
<path d="M43 39.9999C45 40.3333 49.3 42.6999 48.5 47.4999" stroke="#C98093" stroke-width="3" stroke-linecap="round"/>
<path d="M50 34.4999C48.3333 34.3333 44.7 32.8999 45.5 28.4999" stroke="#C98093" stroke-width="3" stroke-linecap="round"/>
<path d="M54 15C52.1667 14.6667 48 14 46 19.5" stroke="#C98093" stroke-width="3" stroke-linecap="round"/>
<path d="M35.5 53.9999C35.3333 50.6666 36.3 44.9999 41.5 44.9999" stroke="#C98093" stroke-width="3" stroke-linecap="round"/>
<path d="M53.5 37.4999C52.6716 37.4999 52 38.1715 52 38.9999C52 39.8284 52.6716 40.4999 53.5 40.4999V37.4999ZM59.2519 35.1679C58.8629 35.7514 56.9975 37.4999 53.5 37.4999V40.4999C58.0025 40.4999 60.8037 38.2485 61.7481 36.832L59.2519 35.1679Z" fill="#C98093"/>
<path d="M42.0633 10.5688C41.8252 11.3623 42.2755 12.1986 43.069 12.4366C43.8625 12.6747 44.6987 12.2244 44.9367 11.4309L42.0633 10.5688ZM49.5 5.5C48.3294 5.5 46.7635 5.47295 45.3613 6.14865C43.8321 6.88556 42.7431 8.3026 42.0633 10.5688L44.9367 11.4309C45.4569 9.69714 46.1179 9.11424 46.6637 8.85122C47.3365 8.52699 48.1706 8.5 49.5 8.5V5.5Z" fill="#C98093"/>
<path d="M40.2058 18.4708C41.0182 18.6333 41.8084 18.1065 41.9709 17.2941C42.1333 16.4818 41.6065 15.6915 40.7942 15.5291L40.2058 18.4708ZM37 23C37 22.2601 37.2181 20.8251 37.8159 19.7324C38.106 19.2023 38.4368 18.8415 38.7855 18.6387C39.1021 18.4545 39.5377 18.3372 40.2058 18.4708L40.7942 15.5291C39.4623 15.2627 38.2729 15.4662 37.277 16.0456C36.3132 16.6063 35.644 17.4518 35.1841 18.2925C34.2819 19.9415 34 21.9064 34 23H37Z" fill="#C98093"/>
<path d="M53 22.4999C53.5 26.4999 46 30.9999 41.5 25.9999" stroke="#C98093" stroke-width="3" stroke-linecap="round"/>
<path d="M16 55C16 55.8284 15.3284 56.5 14.5 56.5C13.6716 56.5 12 56.3284 12 55.5C12 54.6716 13.1716 53 14 53C14.8284 53 16 54.1716 16 55Z" fill="#E3B481"/>
<path d="M17.3388 52.7443C17.1429 53.2607 16.6349 53.0121 16.1787 53.0534C15.2323 52.4802 14.7463 52.3517 14.9421 51.8353C15.138 51.3189 16.1829 51.2364 16.6993 51.4323C17.1668 51.6096 17.5346 52.2279 17.3388 52.7443Z" fill="#E3B481"/>
<path d="M15.8655 11C15.8655 11.8284 14.6939 12.5 13.8655 12.5C13.0371 12.5 11.8655 12.3284 11.8655 11.5C11.8655 10.6716 13.5371 10 14.3655 10C15.1939 10 15.8655 10.1716 15.8655 11Z" fill="#E3B481"/>
<path d="M11.5632 13.8461C11.5632 14.3984 11.4177 14.5 10.8655 14.5C10.3132 14.5 10 14.3984 10 13.8461C10 13.2938 10.3014 12.8461 10.8537 12.8461C11.406 12.8461 11.5632 13.2938 11.5632 13.8461Z" fill="#E3B481"/>
<path d="M14.3655 14.6953C14.3655 15.5237 13.8655 16.1953 13.3655 16.1953C13.0893 16.1953 12.8655 16.0237 12.8655 15.1953C12.8655 14.3669 12.8655 13.6953 13.3655 13.1953C14.0726 12.4882 14.3655 13.8669 14.3655 14.6953Z" fill="#E3B481"/>
<circle cx="22.5" cy="28.5" r="2.5" fill="#0F1011"/>
<circle cx="42.5" cy="28.5" r="2.5" fill="#0F1011"/>
<path d="M17.5 75L21 73.5" stroke="black" stroke-width="3" stroke-linecap="round"/>
<path d="M17.5 75L21 73.5" stroke="black" stroke-width="3" stroke-linecap="round"/>
<path d="M48.5 75.5L46 73" stroke="black" stroke-width="3" stroke-linecap="round"/>
<path d="M23.2423 40.1593C22.778 39.4732 21.8454 39.2934 21.1593 39.7577C20.4732 40.222 20.2934 41.1546 20.7577 41.8407L23.2423 40.1593ZM20.7577 41.8407C22.0524 43.7537 24.1295 44.9013 26.2782 45.5743C28.4422 46.252 30.8372 46.5 33 46.5V43.5C31.0378 43.5 28.9641 43.2718 27.1749 42.7114C25.3704 42.1463 24.0101 41.2939 23.2423 40.1593L20.7577 41.8407Z" fill="#0F1011"/>
<path d="M41.7224 40.214C42.1565 39.5084 43.0804 39.2883 43.786 39.7224C44.4916 40.1565 44.7117 41.0804 44.2776 41.786L41.7224 40.214ZM44.2776 41.786C43.0969 43.705 41.1861 44.874 39.1917 45.5611C37.1929 46.2497 34.9863 46.5 33 46.5V43.5C34.7637 43.5 36.6196 43.2741 38.2145 42.7247C39.8139 42.1737 41.0281 41.3426 41.7224 40.214L44.2776 41.786Z" fill="#0F1011"/>
<path d="M0.5 51C0.5 51.2761 0.723858 51.5 1 51.5C1.27614 51.5 1.5 51.2761 1.5 51H0.5ZM1.5 51C1.5 50.802 1.6454 50.0617 2.35355 49.3536L1.64645 48.6464C0.754596 49.5383 0.5 50.5314 0.5 51H1.5Z" fill="black"/>
<path d="M3.5 51C3.5 51.2761 3.27614 51.5 3 51.5C2.72386 51.5 2.5 51.2761 2.5 51H3.5ZM2.50003 51.5C2.50003 51.7761 2.27617 52 2.00003 52C1.72388 52 1.50003 51.7761 1.50003 51.5H2.50003ZM2.00003 50.5L2.44724 50.2764L2.50003 50.382V50.5H2.00003ZM2.5 51C2.5 50.8998 2.46296 50.67 1.64647 49.8536L2.35358 49.1464C3.13709 49.93 3.5 50.4336 3.5 51H2.5ZM1.50003 51.5V50.5H2.50003V51.5H1.50003ZM1.55281 50.7236L1.05281 49.7236L1.94724 49.2764L2.44724 50.2764L1.55281 50.7236Z" fill="black"/>
<path d="M73.7893 25.0918C73.8564 24.8239 73.6935 24.5524 73.4256 24.4854C73.1578 24.4184 72.8863 24.5812 72.8192 24.8491L73.7893 25.0918ZM72.8192 24.8491C72.7712 25.0412 72.4504 25.724 71.5916 26.2391L72.1059 27.0967C73.1876 26.448 73.6756 25.5464 73.7893 25.0918L72.8192 24.8491Z" fill="black"/>
<path d="M70.879 24.3637C70.9461 24.0958 71.2176 23.933 71.4854 24C71.7533 24.067 71.9161 24.3385 71.8491 24.6064L70.879 24.3637ZM71.9705 24.1213C72.0375 23.8535 72.309 23.6906 72.5769 23.7577C72.8448 23.8247 73.0076 24.0962 72.9406 24.3641L71.9705 24.1213ZM72.2128 25.2128L71.7247 25.3212L71.6991 25.2059L71.7277 25.0914L72.2128 25.2128ZM71.8491 24.6064C71.8248 24.7036 71.805 24.9355 72.3989 25.9257L71.5413 26.4401C70.9714 25.4898 70.7415 24.9132 70.879 24.3637L71.8491 24.6064ZM72.9406 24.3641L72.6978 25.3342L71.7277 25.0914L71.9705 24.1213L72.9406 24.3641ZM72.7009 25.1044L72.9432 26.1959L71.967 26.4126L71.7247 25.3212L72.7009 25.1044Z" fill="black"/>
</svg>
