<svg width="40" height="38" viewBox="0 0 40 38" fill="none" xmlns="http://www.w3.org/2000/svg">
<rect width="40" height="38" fill="#FFF3E6"/>
<path d="M33.193 5.94339C33.1044 5.39827 33.4744 4.88448 34.0195 4.79581C34.5646 4.70714 35.0784 5.07716 35.1671 5.62228L33.193 5.94339ZM25.5122 17.9604C26.3224 18.2563 27.1997 18.0973 28.1559 17.4539C29.1271 16.8003 30.088 15.6976 30.9207 14.3293C31.7475 12.9704 32.4122 11.408 32.8202 9.89965C33.2319 8.3779 33.3625 6.98525 33.193 5.94339L35.1671 5.62228C35.399 7.04799 35.2037 8.74779 34.7508 10.4219C34.2943 12.1095 33.5556 13.8464 32.6292 15.3689C31.7085 16.882 30.5661 18.2427 29.2725 19.1132C27.9639 19.9937 26.4149 20.4193 24.8261 19.8391L25.5122 17.9604Z" fill="black"/>
<path d="M35.7201 4.10562C35.7432 3.83045 35.5389 3.58861 35.2637 3.56547C34.9886 3.54232 34.7467 3.74663 34.7236 4.0218L35.7201 4.10562ZM34.7236 4.0218C34.707 4.21914 34.5001 4.94461 33.735 5.59091L34.3804 6.3548C35.3439 5.54084 35.6808 4.5726 35.7201 4.10562L34.7236 4.0218Z" fill="black"/>
<path d="M32.7306 3.85421C32.7538 3.57904 32.9956 3.37473 33.2708 3.39788C33.5459 3.42102 33.7503 3.66285 33.7271 3.93802L32.7306 3.85421ZM33.769 3.43978C33.7921 3.16461 34.034 2.9603 34.3091 2.98345C34.5843 3.00659 34.7886 3.24843 34.7655 3.5236L33.769 3.43978ZM34.1834 4.47817L33.719 4.66351L33.6753 4.55388L33.6852 4.43626L34.1834 4.47817ZM33.7271 3.93802C33.7187 4.03791 33.7364 4.26993 34.4815 5.15197L33.7177 5.79733C33.0026 4.9509 32.6832 4.41865 32.7306 3.85421L33.7271 3.93802ZM34.7655 3.5236L34.6817 4.52008L33.6852 4.43626L33.769 3.43978L34.7655 3.5236ZM34.6478 4.29283L35.0622 5.33122L34.1335 5.7019L33.719 4.66351L34.6478 4.29283Z" fill="black"/>
<path d="M35.7201 4.10562C35.7432 3.83045 35.5389 3.58861 35.2637 3.56547C34.9886 3.54232 34.7467 3.74663 34.7236 4.0218L35.7201 4.10562ZM34.7236 4.0218C34.707 4.21914 34.5001 4.94461 33.735 5.59091L34.3804 6.3548C35.3439 5.54084 35.6808 4.5726 35.7201 4.10562L34.7236 4.0218Z" fill="black"/>
<path d="M32.7306 3.85421C32.7538 3.57904 32.9956 3.37473 33.2708 3.39788C33.5459 3.42102 33.7503 3.66285 33.7271 3.93802L32.7306 3.85421ZM33.769 3.43978C33.7921 3.16461 34.034 2.9603 34.3091 2.98345C34.5843 3.00659 34.7886 3.24843 34.7655 3.5236L33.769 3.43978ZM34.1834 4.47817L33.719 4.66351L33.6753 4.55388L33.6852 4.43626L34.1834 4.47817ZM33.7271 3.93802C33.7187 4.03791 33.7364 4.26993 34.4815 5.15197L33.7177 5.79733C33.0026 4.9509 32.6832 4.41865 32.7306 3.85421L33.7271 3.93802ZM34.7655 3.5236L34.6817 4.52008L33.6852 4.43626L33.769 3.43978L34.7655 3.5236ZM34.6478 4.29283L35.0622 5.33122L34.1335 5.7019L33.719 4.66351L34.6478 4.29283Z" fill="black"/>
</svg>
